<svg enable-background="new 0 0 768 768" viewBox="0 0 768 768" xmlns="http://www.w3.org/2000/svg"><path d="m0 283.5h768v83.3h-768z" fill="#141448"/><path d="m83.3 459.3h601.4v83.3h-601.4z" fill="#141448"/><g fill="#cf9"><path d="m79.3 334.1v-44.2h-22v44.2h-21.4v-107.4h21.4v43.4h22v-43.4h21.4v107.5h-21.4z"/><path d="m133.1 330.6c-4.6-3.2-7.4-8.3-8.6-15.3-1.1-7-1.7-18.7-1.7-34.9 0-16.3.6-28 1.7-35s4-12.1 8.6-15.2c4.6-3.2 12.3-4.8 23.1-4.8s18.5 1.6 23.1 4.8 7.4 8.3 8.6 15.2c1.1 7 1.7 18.6 1.7 35 0 16.2-.6 27.9-1.7 34.9s-4 12.1-8.6 15.3-12.3 4.8-23.1 4.8c-10.9 0-18.6-1.6-23.1-4.8zm31.5-15.8c1.5-1.1 2.4-4 2.8-8.4.4-4.5.6-13.1.6-25.9s-.2-21.5-.6-25.9c-.4-4.5-1.4-7.3-2.8-8.4-1.5-1.1-4.3-1.7-8.4-1.7-4.2 0-7 .6-8.4 1.7-1.5 1.1-2.4 4-2.8 8.4-.4 4.5-.6 13.1-.6 25.9s.2 21.5.6 25.9c.4 4.5 1.4 7.3 2.8 8.4 1.5 1.1 4.3 1.7 8.4 1.7s7-.6 8.4-1.7z"/><path d="m255.2 334.1-10.5-37.5h-11.6v37.5h-21.6v-107.4h36.2c7.7 0 13.5 1.3 17.4 3.9s6.5 6.4 7.9 11.2c1.4 4.9 2 11.5 2 19.7 0 7.8-.7 14.3-2.1 19.4s-4.2 9-8.5 11.6l13 41.7h-22.2zm-5.1-57.2c1.5-.8 2.4-2.2 2.9-4.4.5-2.1.7-5.8.7-10.9 0-5-.2-8.5-.7-10.6s-1.4-3.5-2.9-4.3-3.9-1.2-7.3-1.2h-9.5v32.5h9.5c3.4.1 5.8-.3 7.3-1.1z"/><path d="m296.8 334.1v-107.4h21.4v107.5h-21.4z"/><path d="m339.1 334.1v-17.8l34.5-70.8h-33.4v-18.9h57.5v17.7l-34.7 70.9h35v18.9z"/><path d="m427 330.6c-4.6-3.2-7.4-8.3-8.6-15.3-1.1-7-1.7-18.7-1.7-34.9 0-16.3.6-28 1.7-35s4-12.1 8.6-15.2c4.6-3.2 12.3-4.8 23.1-4.8s18.5 1.6 23.1 4.8 7.4 8.3 8.6 15.2c1.1 7 1.7 18.6 1.7 35 0 16.2-.6 27.9-1.7 34.9s-4 12.1-8.6 15.3-12.3 4.8-23.1 4.8-18.5-1.6-23.1-4.8zm31.6-15.8c1.5-1.1 2.4-4 2.8-8.4.4-4.5.6-13.1.6-25.9s-.2-21.5-.6-25.9c-.4-4.5-1.4-7.3-2.8-8.4-1.5-1.1-4.3-1.7-8.4-1.7-4.2 0-7 .6-8.4 1.7-1.5 1.1-2.4 4-2.8 8.4-.4 4.5-.6 13.1-.6 25.9s.2 21.5.6 25.9c.4 4.5 1.4 7.3 2.8 8.4 1.5 1.1 4.3 1.7 8.4 1.7s6.9-.6 8.4-1.7z"/><path d="m551.7 334.1-25-58.9h-.6v58.9h-20.5v-107.4h20.8l23.3 54.4h.8v-54.4h20.6v107.5h-19.4z"/><path d="m608.9 334.1v-87.9h-20.3v-19.5h62.2v19.5h-20.3v87.9z"/><path d="m710.2 334.1-4.2-22h-24l-4.2 22h-21.4l22.2-107.5h31.4l22.2 107.5zm-15.7-87.1h-.9l-8.4 46.5h17.7z"/><path d="m118.6 521.6v-107.5h52.2v18.9h-30.6v24.8h26.4v18.9h-26.4v25.9h30.6v18.9h-52.2z"/><path d="m206.2 521.6-20.6-107.5h21.9l14.1 85h1.4l13.6-85h21.6l-20.6 107.5z"/><path d="m275.8 521.6v-107.5h52.2v18.9h-30.6v24.8h26.4v18.9h-26.4v25.9h30.6v18.9h-52.2z"/><path d="m395.4 521.6-25-58.9h-.6v58.9h-20.5v-107.5h20.8l23.3 54.4h.8v-54.4h20.6v107.5z"/><path d="m452.6 521.6v-87.9h-20.3v-19.5h62.2v19.5h-20.3v87.9z"/><path d="m524 522.1c-5.2-.5-9.7-1.1-13.7-2v-17.5c10.6.8 18 1.2 22 1.2 3.6 0 6.4-.2 8.3-.6s3.3-1.1 4.2-2.2c.8-.8 1.4-2 1.6-3.5.3-1.5.4-3.7.4-6.5 0-3.9-.2-6.6-.6-8.2s-1.3-2.8-2.6-3.6-3.6-1.5-6.8-2.1l-14.7-2.7c-5.2-.9-8.8-3.8-10.8-8.6s-3-11.7-3-20.8c0-8.8 1.3-15.6 3.8-20.3 2.6-4.7 6.1-7.9 10.5-9.5 4.5-1.7 10.2-2.5 17-2.5 4.8 0 9.4.3 13.8.9s8 1.2 10.9 1.9v17.5c-5.6-.9-11.9-1.4-18.9-1.4-3.8 0-6.6.2-8.7.5-2 .3-3.5.9-4.5 1.7-1.1.8-1.9 2-2.2 3.6s-.5 3.9-.5 6.9c0 3.2.2 5.6.5 7 .4 1.5 1 2.5 2 3.1.9.6 2.6 1.1 4.8 1.6l13.7 2.5c3.6.5 6.7 1.6 9.3 3.4 2.6 1.7 4.6 4.6 6 8.5 1.5 4.2 2.2 10.1 2.2 17.7 0 9.9-1.2 17.3-3.6 22.3s-5.7 8.3-9.9 9.9-9.8 2.4-16.6 2.4c-3.9.1-8.7-.1-13.9-.6z"/><path d="m626.9 452.5c-1.4-15.9-2-26.1-2-30.5v-7.8h24.5v7.8c0 4.3-.7 14.3-2 30-1.4 15.7-2.6 27.6-3.6 35.6h-13.3c-1.1-7.6-2.3-19.2-3.6-35.1zm-.8 69.1v-20.6h22v20.6z"/></g></svg>